<svg width="440" height="88" viewBox="0 0 440 88" fill="none" xmlns="http://www.w3.org/2000/svg">
<path d="M53.376 69C52.16 65.736 51.008 62.6 49.92 59.592C48.832 56.584 47.776 53.64 46.752 50.76H14.4C13.312 53.64 12.224 56.584 11.136 59.592C10.048 62.6 8.928 65.736 7.776 69H0.96C3.52 62.088 5.92 55.656 8.16 49.704C10.4 43.688 12.576 38.024 14.688 32.712C16.864 27.336 19.008 22.184 21.12 17.256C23.232 12.328 25.472 7.4 27.84 2.472H33.6C35.968 7.4 38.208 12.328 40.32 17.256C42.432 22.184 44.544 27.336 46.656 32.712C48.832 38.024 51.04 43.688 53.28 49.704C55.52 55.656 57.952 62.088 60.576 69H53.376ZM30.528 9.96C28.096 15.464 25.728 21.064 23.424 26.76C21.184 32.456 18.848 38.6 16.416 45.192H44.736C42.304 38.6 39.936 32.456 37.632 26.76C35.328 21.064 32.96 15.464 30.528 9.96ZM80.412 18.408C82.46 18.408 84.38 18.568 86.172 18.888C88.028 19.208 89.308 19.528 90.012 19.848L88.764 25.224C88.252 24.968 87.196 24.712 85.596 24.456C84.06 24.136 82.012 23.976 79.452 23.976C76.764 23.976 74.588 24.168 72.924 24.552C71.324 24.936 70.268 25.256 69.756 25.512V69H63.516V21.672C65.116 20.968 67.324 20.264 70.14 19.56C72.956 18.792 76.38 18.408 80.412 18.408ZM99.0383 19.368H118.814V24.648H99.0383V51.048C99.0383 53.864 99.2623 56.168 99.7103 57.96C100.222 59.688 100.926 61.032 101.822 61.992C102.718 62.952 103.806 63.592 105.086 63.912C106.366 64.232 107.774 64.392 109.31 64.392C111.934 64.392 114.046 64.104 115.646 63.528C117.246 62.888 118.494 62.312 119.39 61.8L120.926 66.984C120.03 67.56 118.462 68.232 116.222 69C113.982 69.704 111.55 70.056 108.926 70.056C105.854 70.056 103.262 69.672 101.15 68.904C99.1023 68.072 97.4383 66.856 96.1583 65.256C94.9423 63.592 94.0783 61.544 93.5663 59.112C93.0543 56.68 92.7983 53.8 92.7983 50.472V4.776L99.0383 3.62399V19.368ZM201.835 69.576C200.747 69.576 199.467 69.512 197.995 69.384C196.587 69.32 195.115 69.192 193.579 69C192.107 68.872 190.699 68.712 189.355 68.52C188.011 68.264 186.859 68.008 185.899 67.752V3.72C187.051 3.4 188.331 3.144 189.739 2.952C191.147 2.696 192.587 2.504 194.059 2.376C195.595 2.184 197.067 2.056 198.475 1.992C199.947 1.928 201.291 1.89599 202.507 1.89599C206.091 1.89599 209.483 2.18399 212.683 2.75999C215.947 3.33599 218.795 4.296 221.227 5.64C223.659 6.984 225.579 8.776 226.987 11.016C228.459 13.192 229.195 15.912 229.195 19.176C229.195 22.76 228.267 25.832 226.411 28.392C224.619 30.888 222.187 32.616 219.115 33.576C221.035 34.024 222.795 34.664 224.395 35.496C225.995 36.328 227.403 37.416 228.619 38.76C229.835 40.04 230.763 41.64 231.403 43.56C232.107 45.416 232.459 47.656 232.459 50.28C232.459 56.552 229.963 61.352 224.971 64.68C219.979 67.944 212.267 69.576 201.835 69.576ZM192.427 37.128V63.336C193.387 63.464 194.827 63.624 196.747 63.816C198.667 63.944 200.619 64.008 202.603 64.008C205.547 64.008 208.395 63.816 211.147 63.432C213.963 63.048 216.427 62.344 218.539 61.32C220.651 60.296 222.347 58.888 223.627 57.096C224.907 55.304 225.547 53 225.547 50.184C225.547 47.624 225.099 45.512 224.203 43.848C223.307 42.12 222.027 40.776 220.363 39.816C218.699 38.792 216.651 38.088 214.219 37.704C211.851 37.32 209.195 37.128 206.251 37.128H192.427ZM192.427 31.56H205.099C207.467 31.56 209.707 31.4 211.819 31.08C213.931 30.696 215.755 30.056 217.291 29.16C218.891 28.2 220.139 26.952 221.035 25.416C221.931 23.816 222.379 21.8 222.379 19.368C222.379 17.192 221.899 15.368 220.939 13.896C219.979 12.36 218.603 11.112 216.811 10.152C215.083 9.192 213.003 8.52 210.571 8.136C208.139 7.688 205.451 7.464 202.507 7.464C200.139 7.464 198.123 7.528 196.459 7.65599C194.859 7.784 193.515 7.944 192.427 8.136V31.56ZM277.856 67.272C276 67.784 273.504 68.36 270.368 69C267.232 69.64 263.392 69.96 258.848 69.96C255.136 69.96 252.032 69.416 249.536 68.328C247.04 67.24 245.024 65.704 243.488 63.72C241.952 61.736 240.832 59.336 240.128 56.52C239.488 53.704 239.168 50.6 239.168 47.208V19.368H245.408V45.192C245.408 48.712 245.664 51.688 246.176 54.12C246.688 56.552 247.52 58.536 248.672 60.072C249.824 61.544 251.296 62.632 253.088 63.336C254.944 63.976 257.184 64.296 259.808 64.296C262.752 64.296 265.312 64.136 267.488 63.816C269.664 63.496 271.04 63.208 271.616 62.952V19.368H277.856V67.272ZM305.056 18.408C307.104 18.408 309.024 18.568 310.816 18.888C312.672 19.208 313.952 19.528 314.656 19.848L313.408 25.224C312.896 24.968 311.84 24.712 310.24 24.456C308.704 24.136 306.656 23.976 304.096 23.976C301.408 23.976 299.232 24.168 297.568 24.552C295.968 24.936 294.912 25.256 294.4 25.512V69H288.16V21.672C289.76 20.968 291.968 20.264 294.784 19.56C297.6 18.792 301.024 18.408 305.056 18.408ZM350.178 63.24C349.794 63.56 349.218 63.944 348.45 64.392C347.682 64.776 346.722 65.192 345.57 65.64C344.482 66.088 343.202 66.472 341.73 66.792C340.322 67.048 338.722 67.176 336.93 67.176C334.05 67.176 331.266 66.728 328.578 65.832C325.89 64.936 323.522 63.528 321.474 61.608C319.49 59.688 317.89 57.224 316.674 54.216C315.458 51.144 314.85 47.432 314.85 43.08C314.85 39.56 315.394 36.296 316.482 33.288C317.57 30.28 319.106 27.688 321.09 25.512C323.138 23.272 325.602 21.544 328.482 20.328C331.426 19.048 334.722 18.408 338.37 18.408C342.978 18.408 346.658 18.728 349.41 19.368C352.226 19.944 354.53 20.52 356.322 21.096V66.408C356.322 73.832 354.402 79.112 350.562 82.248C346.722 85.448 340.93 87.048 333.186 87.048C329.986 87.048 327.074 86.792 324.45 86.28C321.89 85.832 319.682 85.288 317.826 84.648L319.074 78.984C320.61 79.688 322.69 80.296 325.314 80.808C328.002 81.32 330.69 81.576 333.378 81.576C339.266 81.576 343.522 80.424 346.146 78.12C348.834 75.88 350.178 72.008 350.178 66.504V63.24ZM350.082 25.416C348.994 25.096 347.586 24.808 345.858 24.552C344.13 24.232 341.666 24.072 338.466 24.072C335.778 24.072 333.378 24.552 331.266 25.512C329.218 26.408 327.458 27.72 325.986 29.448C324.514 31.112 323.394 33.128 322.626 35.496C321.858 37.8 321.474 40.36 321.474 43.176C321.474 46.44 321.922 49.256 322.818 51.624C323.714 53.928 324.866 55.816 326.274 57.288C327.746 58.76 329.41 59.848 331.266 60.552C333.122 61.192 335.01 61.512 336.93 61.512C339.746 61.512 342.306 61.096 344.61 60.264C346.978 59.432 348.802 58.472 350.082 57.384V25.416ZM363.641 44.136C363.641 39.784 364.249 36.008 365.465 32.808C366.745 29.544 368.377 26.824 370.361 24.648C372.409 22.472 374.713 20.872 377.273 19.848C379.897 18.76 382.585 18.216 385.337 18.216C391.417 18.216 396.249 20.2 399.833 24.168C403.481 28.136 405.305 34.248 405.305 42.504C405.305 43.016 405.273 43.528 405.209 44.04C405.209 44.552 405.177 45.032 405.113 45.48H370.265C370.457 51.56 371.961 56.232 374.777 59.496C377.593 62.76 382.073 64.392 388.217 64.392C391.609 64.392 394.297 64.072 396.281 63.432C398.265 62.792 399.705 62.248 400.601 61.8L401.753 67.176C400.857 67.688 399.161 68.296 396.665 69C394.233 69.704 391.353 70.056 388.025 70.056C383.673 70.056 379.961 69.416 376.889 68.136C373.817 66.856 371.289 65.064 369.305 62.76C367.321 60.456 365.881 57.736 364.985 54.6C364.089 51.4 363.641 47.912 363.641 44.136ZM398.873 40.2C398.745 35.016 397.529 30.984 395.225 28.104C392.921 25.224 389.657 23.784 385.433 23.784C383.193 23.784 381.177 24.232 379.385 25.128C377.657 26.024 376.121 27.24 374.777 28.776C373.497 30.248 372.473 31.976 371.705 33.96C371.001 35.944 370.585 38.024 370.457 40.2H398.873ZM429.867 18.408C431.915 18.408 433.835 18.568 435.627 18.888C437.483 19.208 438.763 19.528 439.467 19.848L438.219 25.224C437.707 24.968 436.651 24.712 435.051 24.456C433.515 24.136 431.467 23.976 428.907 23.976C426.219 23.976 424.043 24.168 422.379 24.552C420.779 24.936 419.723 25.256 419.211 25.512V69H412.971V21.672C414.571 20.968 416.779 20.264 419.595 19.56C422.411 18.792 425.835 18.408 429.867 18.408Z" fill="#FF2222"/>
<path d="M119.171 51.336C119.171 48.904 119.523 46.696 120.227 44.712C120.931 42.664 121.859 40.84 123.011 39.24C124.227 37.576 125.603 36.136 127.139 34.92C128.739 33.64 130.403 32.52 132.131 31.56C130.595 29.704 129.219 27.72 128.003 25.608C126.787 23.432 126.179 21.064 126.179 18.504C126.179 12.872 127.875 8.552 131.267 5.544C134.659 2.472 139.331 0.935995 145.283 0.935995C148.291 0.935995 150.915 1.352 153.155 2.184C155.395 2.952 157.251 4.04 158.723 5.44799C160.259 6.792 161.411 8.392 162.179 10.248C162.947 12.04 163.331 13.992 163.331 16.104C163.331 20.008 162.211 23.496 159.971 26.568C157.795 29.576 155.011 32.104 151.619 34.152L162.371 44.904C162.947 43.624 163.491 42.024 164.003 40.104C164.579 38.12 164.931 36.392 165.059 34.92L176.963 36.456C176.835 37.672 176.611 39.016 176.291 40.488C175.971 41.896 175.555 43.336 175.043 44.808C174.595 46.28 174.051 47.752 173.411 49.224C172.835 50.696 172.195 52.04 171.491 53.256C173.539 55.56 175.523 58.088 177.443 60.84C179.427 63.528 181.123 66.248 182.531 69H167.843C167.331 68.168 166.627 67.144 165.731 65.928C164.835 64.648 163.939 63.56 163.043 62.664C160.483 64.712 157.507 66.44 154.115 67.848C150.723 69.192 146.915 69.864 142.691 69.864C138.211 69.864 134.467 69.32 131.459 68.232C128.451 67.08 126.019 65.64 124.163 63.912C122.371 62.12 121.091 60.136 120.323 57.96C119.555 55.72 119.171 53.512 119.171 51.336ZM132.515 49.896C132.515 50.856 132.707 51.848 133.091 52.872C133.475 53.896 134.083 54.856 134.915 55.752C135.811 56.584 136.931 57.288 138.275 57.864C139.619 58.376 141.251 58.632 143.171 58.632C145.859 58.632 148.195 58.28 150.179 57.576C152.227 56.872 153.923 55.944 155.267 54.792L139.907 39.336C139.011 39.784 138.115 40.328 137.219 40.968C136.387 41.608 135.619 42.376 134.915 43.272C134.211 44.104 133.635 45.064 133.187 46.152C132.739 47.24 132.515 48.488 132.515 49.896ZM151.139 16.776C151.139 15.304 150.659 13.992 149.699 12.84C148.739 11.688 147.139 11.112 144.899 11.112C142.851 11.112 141.251 11.752 140.099 13.032C139.011 14.248 138.467 15.848 138.467 17.832C138.467 19.496 138.947 21.128 139.907 22.728C140.867 24.264 142.115 25.736 143.651 27.144C145.699 25.992 147.459 24.616 148.931 23.016C150.403 21.416 151.139 19.336 151.139 16.776Z" fill="#A11A1A"/>
</svg>
